<svg xmlns="http://www.w3.org/2000/svg" viewBox="0 0 340 300" role="img" aria-label="Yappy">
  <defs>
    <linearGradient id="yb" x1="0" y1="0" x2="1" y2="1">
      <stop offset="0" stop-color="#3DC6F2"/><stop offset="1" stop-color="#0898D7"/>
    </linearGradient>
    <linearGradient id="yo" x1="0" y1="0" x2="1" y2="1">
      <stop offset="0" stop-color="#FBB040"/><stop offset="1" stop-color="#F7761B"/>
    </linearGradient>
  </defs>
  <!-- burbuja azul (izquierda) -->
  <path fill="url(#yb)" d="M96 38c34 0 62 25 62 57 0 31-26 56-59 57-2 12-12 22-26 26 4-8 5-16 3-24-23-8-39-30-39-56 0-33 26-60 59-60z"/>
  <!-- burbuja naranja (derecha, más alta) -->
  <path fill="url(#yo)" d="M243 10c38 0 69 28 69 63 0 34-29 62-66 63-1 13-12 25-28 29 5-9 6-17 4-26-26-9-44-34-44-63 0-36 29-66 65-66z"/>
  <!-- wordmark -->
  <text x="170" y="277" text-anchor="middle" font-family="Arial Rounded MT Bold, Nunito, Arial, sans-serif" font-weight="800" font-size="96" fill="#123B7D">yappy</text>
</svg>
